<?xml version="1.0" encoding="UTF-8"?><svg id="Layer_1" xmlns="http://www.w3.org/2000/svg" viewBox="0 0 142.58 142.58"><defs><style>.cls-1{fill:#4d3f6c;}.cls-1,.cls-2,.cls-3{stroke-width:0px;}.cls-2{fill:#210f48;}.cls-3{fill:#bed630;}</style></defs><rect class="cls-2" width="142.58" height="142.58" rx="27.93" ry="27.93"/><path class="cls-1" d="m50.63,33.84h6.81v-6.81h6.81v-6.67h20.69v6.67h6.81v6.81h6.81v20.69h-6.81v6.81h-6.81v13.34h27.23v6.81h6.81v6.81h6.67v34.31h-6.67v6.67H30.21v-6.67h-6.67v-34.31h6.67v-6.81h6.81v-6.94h27.23v-13.2h-6.81v-6.81h-6.81v-20.69Zm-13.34,47.92v6.81h-6.81v6.4h88.21v-6.4h-6.81v-6.81h-26.96v6.81h-20.69v-6.81h-26.95Zm-6.81,40.57h88.21v-20.15H30.48v20.15Zm20.15-13.61h7.08v7.08h-7.08v-7.08Zm13.61-74.6h-6.53v20.15h6.81v6.81h20.15v-6.81h6.81v-20.15h-6.53v6.81h-20.69v-6.81Zm0,74.6h7.08v7.08h-7.08v-7.08Zm.27-81.41v6.53h20.15v-6.53h-20.15Zm6.81,54.18h6.53v-13.34h-6.53v13.34Zm6.53,27.23h7.08v7.08h-7.08v-7.08Zm13.61,0h7.08v7.08h-7.08v-7.08Z"/><path class="cls-3" d="m44.03,26.79h6.81v-6.81h6.81v-6.67h20.69v6.67h6.81v6.81h6.81v20.69h-6.81v6.81h-6.81v13.34h27.23v6.81h6.81v6.81h6.67v34.31h-6.67v6.67H23.61v-6.67h-6.67v-34.31h6.67v-6.81h6.81v-6.94h27.23v-13.2h-6.81v-6.81h-6.81v-20.69Zm-13.34,47.92v6.81h-6.81v6.4h88.21v-6.4h-6.81v-6.81h-26.96v6.81h-20.69v-6.81h-26.95Zm-6.81,40.57h88.21v-20.15H23.89v20.15Zm20.15-13.61h7.08v7.08h-7.08v-7.08Zm13.61-74.6h-6.53v20.15h6.81v6.81h20.15v-6.81h6.81v-20.15h-6.53v6.81h-20.69v-6.81Zm0,74.6h7.08v7.08h-7.08v-7.08Zm.27-81.41v6.53h20.15v-6.53h-20.15Zm6.81,54.18h6.53v-13.34h-6.53v13.34Zm6.53,27.23h7.08v7.08h-7.08v-7.08Zm13.61,0h7.08v7.08h-7.08v-7.08Z"/></svg>