<?xml version="1.0" encoding="UTF-8"?><svg id="Layer_1" xmlns="http://www.w3.org/2000/svg" viewBox="0 0 142.58 142.58"><defs><style>.cls-1{fill:#2c1b51;}.cls-1,.cls-2{stroke-width:0px;}.cls-2{fill:#ffe21d;}</style></defs><rect class="cls-1" width="142.58" height="142.58" rx="27.93" ry="27.93"/><path class="cls-2" d="m45.98,26.59h7.08v-7.08h7.08v-6.94h21.53v6.94h7.08v7.08h7.08v21.53h-7.08v7.08h-7.08v13.88h28.33v7.08h7.08v7.08h6.94v35.69h-6.94v6.94H24.74v-6.94h-6.94v-35.69h6.94v-7.08h7.08v-7.22h28.33v-13.74h-7.08v-7.08h-7.08v-21.53Zm-13.88,49.86v7.08h-7.08v6.66h91.78v-6.66h-7.08v-7.08h-28.05v7.08h-21.53v-7.08h-28.04Zm-7.08,42.21h91.78v-20.96H25.02v20.96Zm20.96-14.16h7.37v7.36h-7.37v-7.36Zm14.16-77.62h-6.8v20.96h7.08v7.08h20.96v-7.08h7.08v-20.96h-6.8v7.08h-21.53v-7.08Zm0,77.62h7.37v7.36h-7.37v-7.36Zm.28-84.7v6.8h20.96v-6.8h-20.96Zm7.08,56.37h6.8v-13.88h-6.8v13.88Zm6.8,28.33h7.36v7.36h-7.36v-7.36Zm14.16,0h7.36v7.36h-7.36v-7.36Z"/></svg>