<?xml version="1.0" encoding="utf-8"?>
<!-- Generator: Adobe Illustrator 28.0.0, SVG Export Plug-In . SVG Version: 6.00 Build 0)  -->
<svg version="1.1" id="Layer_1" xmlns="http://www.w3.org/2000/svg" xmlns:xlink="http://www.w3.org/1999/xlink" x="0px" y="0px"
	 viewBox="0 0 142.6 142.6" style="enable-background:new 0 0 142.6 142.6;" xml:space="preserve">
<style type="text/css">
	.st0{fill:#200047;}
	.st1{fill:#BDFF00;}
</style>
<circle class="st0" cx="71" cy="71.3" r="70.7"/>
<g>
	<path class="st1" d="M49.9,28.8h6v-6h6V17h18.2v5.9h6v6h6V47h-6v6h-6v11.7H104v6h6v6h5.9v30.1H110v5.9H32v-5.9h-5.9V76.7H32v-6h6
		v-6.1h23.9V53h-6v-6h-6V28.8z M38.2,70.9v6h-6v5.6h77.5v-5.6h-6v-6H80.1v6H61.9v-6H38.2z M32.2,106.6h77.5V88.9H32.2V106.6z
		 M49.9,94.6h6.2v6.2h-6.2V94.6z M61.9,29h-5.7v17.7h6v6h17.7v-6h6V29h-5.7v6H61.9V29z M61.9,94.6h6.2v6.2h-6.2V94.6z M62.1,23.1
		v5.7h17.7v-5.7H62.1z M68.1,70.7h5.7V58.9h-5.7V70.7z M73.9,94.6h6.2v6.2h-6.2V94.6z M85.8,94.6h6.2v6.2h-6.2V94.6z"/>
</g>
</svg>
